<?xml version="1.0" encoding="UTF-8" standalone="no"?>
<!-- Created with Inkscape (http://www.inkscape.org/) -->

<svg
   xmlns:dc="http://purl.org/dc/elements/1.1/"
   xmlns:cc="http://creativecommons.org/ns#"
   xmlns:rdf="http://www.w3.org/1999/02/22-rdf-syntax-ns#"
   xmlns:svg="http://www.w3.org/2000/svg"
   xmlns="http://www.w3.org/2000/svg"
   xmlns:sodipodi="http://sodipodi.sourceforge.net/DTD/sodipodi-0.dtd"
   xmlns:inkscape="http://www.inkscape.org/namespaces/inkscape"
   width="40.000439mm"
   height="39.995872mm"
   viewBox="0 0 40.000439 39.995872"
   version="1.1"
   id="svg612"
   inkscape:version="0.92pre1 unknown"
   sodipodi:docname="corner-decor-hflip.svg">
  <defs
     id="defs606">
    <clipPath
       clipPathUnits="userSpaceOnUse"
       id="clipPath22">
      <path
         d="M -113.38707,113.38707 H 0 V 0 h -113.38707 z"
         id="path20"
         inkscape:connector-curvature="0" />
    </clipPath>
  </defs>
  <sodipodi:namedview
     id="base"
     pagecolor="#ffffff"
     bordercolor="#666666"
     borderopacity="1.0"
     inkscape:pageopacity="0.0"
     inkscape:pageshadow="2"
     inkscape:zoom="3.959798"
     inkscape:cx="91.24429"
     inkscape:cy="85.752441"
     inkscape:document-units="mm"
     inkscape:current-layer="g16"
     showgrid="false"
     inkscape:window-width="1916"
     inkscape:window-height="1041"
     inkscape:window-x="0"
     inkscape:window-y="37"
     inkscape:window-maximized="0"
     fit-margin-top="0"
     fit-margin-left="0"
     fit-margin-right="0"
     fit-margin-bottom="0" />
  <metadata
     id="metadata609">
    <rdf:RDF>
      <cc:Work
         rdf:about="">
        <dc:format>image/svg+xml</dc:format>
        <dc:type
           rdf:resource="http://purl.org/dc/dcmitype/StillImage" />
        <dc:title></dc:title>
      </cc:Work>
    </rdf:RDF>
  </metadata>
  <g
     inkscape:label="Layer 1"
     inkscape:groupmode="layer"
     id="layer1"
     transform="translate(-85.946192,-33.963979)">
    <g
       id="g14"
       transform="matrix(0.35277777,0,0,-0.35277777,125.94663,73.959851)">
      <g
         id="g16">
        <g
           clip-path="url(#clipPath22)"
           id="g18"
           transform="matrix(-1,0,0,1,-113.38707,0)">
          <path
             style="fill:#d3d2d2;fill-opacity:1;fill-rule:nonzero;stroke:none;stroke-width:0.53133333;stroke-linecap:butt;stroke-linejoin:miter;stroke-miterlimit:10;stroke-dasharray:none;stroke-opacity:1"
             d="m 329.81445,128.375 c -1.65312,0.0904 -3.20864,1.00419 -3.99804,2.58594 0,0 -2.82226,7.39792 8.80273,8.55664 0,0 -0.74695,5.18736 -3.98242,10.56445 -3.71572,6.17593 -5.62848,15.05359 0.4082,19.42774 4.31984,3.13042 9.62555,3.34501 12.85156,3.10546 -0.007,0.001 -0.0149,0.007 -0.0195,0.01 -8.3211,4.15229 -11.90157,11.58047 -11.10156,19.04492 0.10267,0.95339 0.28381,1.88445 0.53516,2.78125 -0.0413,0.059 -0.0841,0.1071 -0.12305,0.1543 -17.95313,24.37804 1.13317,49.03803 3.98633,55.17383 2.85077,6.1358 8.35663,16.3777 4.65039,23.10351 -4.32341,7.83491 -16.99219,3.82422 -16.99219,3.82422 4.21955,5.26257 18.02812,3.18583 19.9668,-6.26562 2.0189,-9.86448 -3.77525,-21.51064 -9.72461,-32.21289 -5.95292,-10.6905 -11.01083,-20.69697 -4.01953,-36.41407 0.86962,-1.95874 1.85941,-3.76397 2.93554,-5.42773 1.23895,2.99713 3.27391,5.53304 5.76954,7.26758 -2.39415,4.74346 -3.01335,9.90163 -2.60157,14.27929 0.62636,6.58502 3.09808,11.11867 6.66602,15.5293 1.82244,2.25287 6.31095,4.76113 6.06055,7.06445 -0.52286,4.80952 -1.97357,13.13401 3.60156,15.8711 10.96647,5.38395 19.91543,-8.82457 43.95117,-7.08399 -19.37984,-8.31803 -22.50926,-21.68223 -34.6543,-21.86914 -8.60559,-0.13244 -9.02936,9.72646 -12.10351,8.78516 -6.58566,-2.01652 -16.69703,-17.21213 -9.95117,-31.57227 0.0484,-0.10621 0.10079,-0.18872 0.15039,-0.29492 1.49262,0.86139 3.11146,1.45131 4.79882,1.71094 6.53579,0.99117 12.46617,-2.98637 12.55469,-9.53516 0.0224,-1.67553 -0.31798,-3.04341 -0.88672,-4.11718 5.73462,-1.54931 10.81176,-1.61209 11.83008,-1.60743 0.8472,1.1599 1.795,2.30287 2.86524,3.42383 4.69858,4.93225 9.90345,7.84747 14.35546,9.58203 0.17698,5.42784 -1.57482,11.10425 -6.33007,14.70313 -8.21727,6.2066 -19.43889,0.86069 -20.03711,-5.02735 -0.59588,-5.87617 2.35742,-7.18554 2.35742,-7.18554 -1.17524,3.36292 0.82871,5.6521 3.3125,5.6875 2.48503,0.0354 5.00818,-2.86882 3.24414,-6.05469 -2.25136,-4.07088 -10.57409,-3.07955 -10.24609,5.95898 0.32804,9.03854 14.18765,15.32796 23.39257,7.0918 4.18532,-3.74047 6.12297,-9.05013 6.02149,-14.56055 5.23785,1.78174 9.05874,1.90054 9.09179,1.88868 0.19707,2.44254 2.23487,4.36523 4.72461,4.36523 2.62068,0 4.74219,-2.12463 4.74219,-4.74414 0,-2.61953 -2.12151,-4.74219 -4.74219,-4.74219 0,0 -0.0649,-3.82331 -1.76757,-9.08594 5.49742,0.17698 10.8435,-1.68766 14.64062,-5.82226 8.35295,-9.0928 2.25606,-23.03872 -6.77539,-23.48828 -9.03261,-0.45192 -10.13668,7.85647 -6.09766,10.16211 3.1623,1.8077 6.09766,-0.67593 6.09766,-3.16211 0,-2.48383 -2.25999,-4.51595 -5.64648,-3.38672 0,0 1.35466,-2.93511 7.22851,-2.25781 5.87151,0.6773 11.06562,11.96849 4.74219,20.09961 -3.66261,4.7045 -9.36552,6.3826 -14.79102,6.1289 -1.66964,-4.4744 -4.51432,-9.71851 -9.37695,-14.48437 -1.21301,-1.18822 -2.44812,-2.23307 -3.68945,-3.16407 0.10265,-1.97525 0.49673,-6.57851 2,-11.5957 1.0844,0.60887 2.46287,0.98242 4.17383,0.98242 6.54878,0 10.61599,-5.87113 9.71093,-12.41992 -0.23244,-1.69209 -0.80323,-3.32054 -1.63867,-4.82617 0.0968,-0.0461 0.18721,-0.0997 0.28516,-0.14453 13.15466,-5.9588 27.26512,3.74174 29.95703,8.02148 1.18633,1.8861 0.74414,3.12588 -0.0606,4.22071 -1.92373,2.61785 -7.29307,7.7699 -2.24609,14.33007 8.19058,10.64628 19.37496,5.9819 23.59179,23.80274 -1.0937,-20.70753 6.54745,-28.11067 -1.98437,-38.91992 -5.46027,-6.9178 -11.15776,-1.3995 -14.47656,-2.45703 -1.2724,-0.40547 -3.20527,-2.45905 -4.72071,-3.66211 -1.66663,-1.32308 -8.6749,-7.71475 -16.73437,-8.72461 -4.44728,-0.48146 -9.6446,-0.0407 -14.41992,2.25195 -1.70386,-2.44724 -4.15815,-4.45938 -7.07617,-5.71484 1.6767,-1.05607 3.49399,-2.01569 5.46093,-2.85938 15.80802,-6.77532 25.74325,-1.58008 36.35938,4.51563 10.61612,6.09804 22.17748,12.05041 32.07031,10.16601 9.48449,-1.80769 11.74451,-15.58347 6.55274,-19.875 -4e-5,0 3.83497,12.72266 -4.06836,16.9375 -6.77536,3.61304 -16.93709,-2.033 -23.03516,-4.96875 -6.09804,-2.93457 -30.49101,-22.35669 -55.10742,-4.74219 -0.0555,0.0413 -0.1094,0.081 -0.16602,0.1211 -0.89205,-0.26195 -1.81614,-0.45893 -2.76953,-0.57227 -7.45267,-0.90502 -14.68153,2.71185 -19.19727,10.8418 -0.001,0.005 -0.005,0.009 -0.008,0.0117 0.28558,-3.2213 0.14015,-8.52751 -2.92773,-12.88867 -4.29035,-6.09684 -13.1964,-4.30656 -19.42188,-0.67579 -5.42077,3.16112 -10.61523,3.8418 -10.61523,3.8418 0,0 0.90298,-3.38969 -1.58203,-7.0039 -1.17996,-1.71571 -2.93086,-2.44979 -4.58399,-2.35938 z m 1.19336,2.35352 c 0.94102,0.002 1.92037,0.45748 2.71094,1.36132 1.58352,1.80654 1.35742,5.8711 1.35742,5.8711 -5.87146,-0.22303 -8.13235,-3.61383 -6.54883,-5.8711 0.63719,-0.91152 1.53945,-1.36324 2.48047,-1.36132 z m 26.91602,1.4121 c 2.36671,0.0683 4.61492,0.98251 6.51172,3.33594 3.55049,4.40362 2.98417,12.28759 2.27148,16.83399 -2.66319,6.91697 -3.40039,13.76953 -3.40039,13.76953 0,0 -6.08552,0.74137 -14.75,4.39453 -4.58416,0.63363 -12.29836,1.02278 -16.58398,-2.53125 -4.65498,-3.85851 -3.5333,-9.04742 -1.40821,-13.75195 3.77,-3.00418 7.23077,-1.6726 8.61133,-1.05664 3.78885,1.68614 2.40039,6.35742 2.40039,6.35742 -0.40829,-3.39475 -4.90623,-4.80828 -6.95703,-3.48438 -2.04959,1.33102 -2.57538,6.741 2.15625,7.48438 4.73405,0.74336 5.90497,-2.17788 6.37695,-3.75196 0.47315,-1.57408 0.98389,-5.85869 -3.50586,-7.95312 -3.57765,-1.67085 -6.63522,-0.46007 -8.10546,0.37891 0.79174,-1.54342 1.61571,-3.00323 2.2871,-4.29883 2.32102,-4.48856 2.15235,-8.54883 2.15235,-8.54883 0,0 3.83859,10e-4 8.35547,-2.25977 1.30505,-0.65489 2.7792,-1.45957 4.33203,-2.22656 -0.85899,1.45843 -2.11226,4.49717 -0.49219,8.09961 2.03308,4.51689 6.32316,4.06363 7.9043,3.61524 1.58116,-0.45314 4.51712,-1.58388 3.83984,-6.32618 -0.67846,-4.74344 -6.09852,-4.29282 -7.45312,-2.25976 -1.35462,2.03424 9.9e-4,6.54883 3.38867,7.00195 0,0 -4.69114,1.32809 -6.32422,-2.48437 -0.59469,-1.38644 -1.88345,-4.86624 1.17383,-8.59961 2.36641,-1.02894 4.85204,-1.80657 7.21875,-1.73829 z m -2.30078,6.01172 c 1.11122,-0.10729 2.24146,0.67513 2.66992,1.93164 0.49087,1.43602 -0.12387,2.94242 -1.37109,3.36719 -1.24726,0.42595 -2.65409,-0.39208 -3.14258,-1.82812 -0.49088,-1.43484 0.12268,-2.94201 1.37109,-3.36914 0.1559,-0.0528 0.31391,-0.0862 0.47266,-0.10157 z m 29.69531,0.91993 c 0.99689,0.007 1.95373,0.096 2.8418,0.23828 -11.01142,9.07865 -13.75558,19.18123 -12.71485,27.8457 -5.9234,-1.77823 -10.33203,-1.41602 -10.33203,-1.41602 0,0 0.90391,-11.29118 7.00195,-19.87304 3.78407,-5.32665 8.88328,-6.82679 13.20313,-6.79492 z m 4.85742,0.67578 c 1.00061,0.2773 1.85308,0.60521 2.49024,0.92383 1.6614,0.83069 3.68831,2.15702 5.2246,4.03906 -2.47907,1.52688 -4.78384,3.62094 -6.74023,6.43164 -1.85725,-0.51331 -3.99839,0.2371 -5.0332,2.17578 -1.08439,2.03072 -0.85582,4.78627 0.90234,6.67187 -0.99471,3.34638 -1.65778,7.2471 -1.89258,11.77344 -2.70568,-1.83604 -5.39931,-3.12471 -7.89257,-4.02148 -0.0554,-0.43776 -0.10908,-0.87229 -0.1504,-1.32422 -0.72921,-8.19248 3.24383,-19.17127 13.0918,-26.66992 z m 8.60352,6.21679 c 1.25193,2.04843 1.88224,4.63254 1.11523,7.80664 -1.57995,6.54999 -7.22789,7.45305 -9.48633,5.87305 0,0 4.96909,-0.90262 3.83985,-5.19531 -0.28552,-1.09028 -0.83631,-1.91484 -1.52539,-2.48828 1.58469,-2.32926 3.56694,-4.4173 6.05664,-5.9961 z m -8.59766,6.67578 c 1.49737,4e-5 2.71094,1.21593 2.71094,2.71094 0,1.4974 -1.21357,2.71094 -2.71094,2.71094 -1.49501,0 -2.70898,-1.21354 -2.70898,-2.71094 0,-1.49501 1.21397,-2.71091 2.70898,-2.71094 z m 53.25977,1.75977 c 0.44196,-0.008 0.88064,0.0278 1.30273,0.14063 1.13502,0.30356 2.04624,0.68384 3.0625,1.74609 7.90696,7.71237 2.91445,19.34191 2.53125,28.84375 -4.88341,-7.87895 -16.02859,-8.22479 -20.79687,-16.20898 -3.66818,-5.4023 3.19049,-9.01962 4.125,-13.82422 2.15268,0.994 6.59591,-0.27493 8.45703,-0.56836 0.43159,-0.068 0.87639,-0.1207 1.31836,-0.12891 z m -106.24805,2.78711 c 0.34979,-0.003 0.71172,0.0539 1.06836,0.18164 1.43129,0.50739 2.23118,1.92818 1.78516,3.17188 -0.4425,1.23897 -1.95822,1.83123 -3.38477,1.32031 -1.43013,-0.50978 -2.22958,-1.92707 -1.78711,-3.16602 0.33188,-0.93099 1.269,-1.49791 2.31836,-1.50781 z m 99.24442,0.26507 1.12528,0.92773 c 6.41359,4.89656 9.0797,14.91828 9.68303,16.45564 0.47693,1.21527 1.11719,4.0332 1.11719,4.0332 0,0 0.32556,-2.60829 -0.006,-3.92969 -0.64645,-2.58166 -3.77537,-12.74019 -8.83309,-16.25338 -1.49706,-0.76273 -3.08641,-1.2335 -3.08641,-1.2335 z m -32.25028,9.64313 c 1.37111,0 2.48438,1.11091 2.48438,2.48438 0,1.37112 -1.11327,2.48437 -2.48438,2.48437 -1.37229,0 -2.48633,-1.11325 -2.48633,-2.48437 0,-1.37347 1.11404,-2.48438 2.48633,-2.48438 z m -40.0918,0.56446 c 0,0 5.35089,0.0228 11.83008,2.33789 1.46552,6.65029 5.02779,12.2059 8.38477,15.39062 3.90924,3.70862 8.8415,5.94816 13.78906,6.56055 1.90095,4.61485 2.12482,7.98912 2.0918,9.58203 -1.35107,0.53101 -2.39832,1.66421 -2.8125,3.06836 -1.64722,0 -4.95271,-0.31892 -9.40235,-2.23047 -0.5475,-4.94404 -2.71676,-9.91274 -6.37109,-13.86914 -3.13281,-3.39712 -8.62574,-7.02604 -15.24414,-8.58594 -2.29387,-6.6904 -2.26563,-12.2539 -2.26563,-12.2539 z m -1.46484,0.50976 c 0,0 -0.57809,4.87625 1.12695,11.24805 -8.70694,-1.24485 -18.95678,1.30079 -28.27734,12.29687 -0.69616,-4.74581 0.15463,-11.38353 6.77539,-15.95117 8.66563,-5.9777 20.375,-7.59375 20.375,-7.59375 z m 15.09766,2.51758 c 4.29154,1.77584 8.89434,4.58733 12.67968,9.05469 3.25551,3.84312 5.43723,7.3657 6.90039,10.43359 -3.11628,-0.45311 -6.02572,-1.52007 -8.25586,-2.97851 -5.57769,-3.65552 -9.66992,-8.79165 -11.32421,-16.50977 z m -16.56055,10.22461 c 0.53203,0.0158 1.05508,0.051 1.56641,0.10351 0.53095,0.0543 1.043,0.12216 1.55273,0.19532 0.81064,2.49916 1.98486,5.16225 3.67578,7.81836 -4.53816,0.14865 -8.46315,0.77946 -11.84375,1.78125 -1.8608,-1.73688 -4.57987,-1.99077 -6.60352,-0.94532 -1.99297,1.02775 -2.7596,3.21754 -2.21093,5.10547 -2.74696,1.93516 -4.84361,4.22339 -6.40235,6.67774 -1.94692,-1.58116 -3.29312,-3.69334 -4.125,-5.4043 -0.30913,-0.64897 -0.62319,-1.49705 -0.88867,-2.5 7.15831,-9.13845 17.29885,-13.06884 25.2793,-12.83203 z m 5.86328,0.8125 c 7.67213,1.76404 12.74508,5.92438 16.31445,11.54687 1.42894,2.24198 2.45656,5.1681 2.86719,8.28321 -3.04785,-1.49858 -6.53958,-3.72931 -10.33789,-7.03321 -4.37056,-3.81366 -7.11394,-8.45227 -8.84375,-12.79687 z m -15.50195,9.52344 c 1.49502,0.0224 2.69197,1.25742 2.67187,2.74414 -0.0212,1.49856 -1.25184,2.70133 -2.74805,2.67773 -1.49502,-0.0236 -2.69352,-1.25141 -2.66992,-2.75 0.0212,-1.49854 1.24872,-2.69191 2.7461,-2.67187 z m 4.25,2.99023 c 1.55164,2.28912 0.56926,7.91754 -6.00196,9.4043 -3.1859,0.73158 -5.76029,0.0595 -7.79101,-1.21485 1.62012,-2.48972 3.73083,-4.44846 6.07422,-5.98242 0.56522,0.69619 1.38275,1.26354 2.4707,1.57031 4.27499,1.17999 5.24805,-3.77734 5.24805,-3.77734 z m 46.14843,8.76758 c 1.62246,0 2.9336,1.30914 2.9336,2.9375 0,1.61656 -1.31114,2.93945 -2.9336,2.93945 -1.62128,0 -2.93554,-1.32289 -2.93554,-2.93945 0.0236,-0.35399 0.0846,-0.66025 0.16601,-0.93164 0.0177,-0.059 0.0284,-0.11678 0.0508,-0.17578 0.008,-0.0118 0.019,-0.0366 0.0274,-0.0606 0.45192,-1.03837 1.48664,-1.76953 2.6914,-1.76953 z m -36.36914,2.66797 c 1.3735,0.0118 2.46887,1.14294 2.45118,2.51172 -0.0212,1.38056 -1.14764,2.4787 -2.51758,2.45507 -1.37227,-0.0236 -2.46966,-1.14484 -2.45313,-2.52539 0.0212,-1.36876 1.14724,-2.465 2.51953,-2.4414 z m -2.93554,23.76562 c 10.34211,0.15917 13.23065,12.27644 28.34961,18.4668 -16.85155,-1.92862 -26.9994,11.0554 -36.33789,6.4707 -4.24972,-2.08638 -3.25612,-9.76693 -2.72266,-13.74414 0.0994,-0.74137 -0.0677,-1.50646 -0.65625,-2.62695 1.54701,-0.13848 2.35927,-0.48153 2.6543,-1.0957 1.89244,-3.93964 4.86466,-7.61979 8.71289,-7.47071 z m -3.03922,8.53912 c -1.12579,0.008 -2.26529,0.0871 -3.4121,0.24805 l -1.71875,0.8496 1.70866,0.55591 c 8.79201,-1.23379 18.35226,3.33205 22.0625,4.86523 1.2542,0.51828 5.47488,2.09961 5.47488,2.09961 0,0 -2.23815,-1.94679 -3.78738,-2.7102 -5.21638,-2.57047 -12.44722,-5.96297 -20.32781,-5.9082 z"
             transform="matrix(0.75000002,0,0,-0.75000002,-357.01408,209.64998)"
             id="path24"
             inkscape:connector-curvature="0"
             sodipodi:nodetypes="cccccccccccccccccccssscsscccccccccccccccccsscccccscccccccscccccscsccccccccccccccccccccccccccccccccccccccccccccccccccccccccccccccccccccccccccccccccccssccccccccccccccccscccccscsssccccccccccccccccccccccccccccccccccccccccccsccccscsccccscccccccccccccccccccccc" />
        </g>
      </g>
    </g>
  </g>
</svg>
